<?xml version="1.0" standalone="no"?><!DOCTYPE svg PUBLIC "-//W3C//DTD SVG 1.1//EN" "http://www.w3.org/Graphics/SVG/1.1/DTD/svg11.dtd"><svg t="1589791157726" class="icon" viewBox="0 0 1091 1024" version="1.1" xmlns="http://www.w3.org/2000/svg" p-id="3138" xmlns:xlink="http://www.w3.org/1999/xlink" width="34.09375" height="32"><defs><style type="text/css"></style></defs><path d="M153.6 519.2c0 213.6 172.8 386.4 386.4 386.4s386.4-172.8 386.4-386.4-172.8-386.4-386.4-386.4-386.4 172.8-386.4 386.4z" fill="#EAC3A0" p-id="3139"></path><path d="M858.4 187.2h81.6v515.2h-81.6V187.2z" fill="#FFEFE1" p-id="3140"></path><path d="M302.4 119.2c-37.6 0-68 29.6-68 68v542.4h542.4V119.2H302.4z" fill="#FFFFFF" p-id="3141"></path><path d="M248 729.6h-27.2V187.2c0-44.8 36.8-81.6 81.6-81.6h488v556h-27.2V132.8H302.4c-29.6 0-54.4 24.8-54.4 54.4v542.4z" fill="#333333" p-id="3142"></path><path d="M302.4 797.6c-37.6 0-68-29.6-68-68s29.6-68 68-68h474.4v136H302.4z" fill="#FFFFFF" p-id="3143"></path><path d="M790.4 811.2h-488c-44.8 0-81.6-36.8-81.6-81.6S257.6 648 302.4 648h488v163.2z m-488-143.2c-29.6 0-53.6 26.4-53.6 57.6s24 57.6 53.6 57.6H760V668H302.4z" fill="#333333" p-id="3144"></path><path d="M736.8 748H275.2v-24h434.4v-48h27.2v72z" fill="#333333" p-id="3145"></path><path d="M343.2 716v176l54.4-40.8 54.4 40.8v-176H343.2z" fill="#FFEFE1" p-id="3146"></path><path d="M464.8 919.2l-68-51.2-68 51.2V702.4H464v216.8z m-68-84.8l40.8 31.2v-136H356.8v136l40-31.2zM288.8 160h27.2v460.8h-27.2V160z m608.8 667.2l-54.4-108.8V132.8c0-15.2 12-27.2 27.2-27.2h54.4c15.2 0 27.2 12 27.2 27.2v585.6c0 0.8-54.4 108.8-54.4 108.8zM871.2 712l27.2 54.4 27.2-54.4V132.8h-54.4V712z" fill="#333333" p-id="3147"></path><path d="M858.4 673.6h81.6v26.4h-81.6v-26.4z m0-500h81.6V200h-81.6v-26.4z" fill="#333333" p-id="3148"></path><path d="M438.4 282.4h203.2v108.8H438.4V282.4z" fill="#FFEFE1" p-id="3149"></path><path d="M655.2 388H424.8V268.8h230.4v119.2z m-203.2-24h176v-72h-176v72z" fill="#333333" p-id="3150"></path></svg>